# xmcd CD database file
#
# Track frame offsets:
#	150
#	18057
#	32397
#	46885
#	67452
#	87627
#	100762
#	115925
#	144755
#	160455
#	174292
#	191930
#	205457
#	220282
#	242220
#	257425
#	280195
#	304652
#
# Disc length: 4381 seconds
#
# Revision: 2
# Processed by: cddbd v1.5.2PL0 Copyright (c) Steve Scherf et al.
# Submitted via: jetAudio 7
#
DISCID=01111b12
DTITLE=Chet Atkins - La Legende Country
DYEAR=1998
DGENRE=Country
TTITLE0=Poor Boy Blues
TTITLE1=Young Thing
TTITLE2=Cheek To Cheek
TTITLE3=Dream
TTITLE4=Read My Licks
TTITLE5=I Still Write Your Name In The Snow
TTITLE6=Ave Maria
TTITLE7=There'll Be Some Changes Made
TTITLE8=After You've Gone
TTITLE9=Love Letter
TTITLE10=Pu, Uana Hulu (Remembering Gabby)
TTITLE11=Every Now And Then
TTITLE12=Jam Man
TTITLE13=Sometime, Someplace
TTITLE14=Sweet Dreams
TTITLE15=My Song
TTITLE16=Laffin' At Life
TTITLE17=On A Roll
EXTD=YEAR: 1998
EXTT0=
EXTT1=
EXTT2=
EXTT3=
EXTT4=
EXTT5=
EXTT6=
EXTT7=
EXTT8=
EXTT9=
EXTT10=
EXTT11=
EXTT12=
EXTT13=
EXTT14=
EXTT15=
EXTT16=
EXTT17=
PLAYORDER=
